<?xml version="1.0"?>
<svg xmlns="http://www.w3.org/2000/svg" xmlns:xlink="http://www.w3.org/1999/xlink" version="1.1" id="Capa_1" x="0px" y="0px" viewBox="0 0 440.331 440.331" style="enable-background:new 0 0 440.331 440.331;" xml:space="preserve" width="512px" height="512px" class=""><g><path style="fill:#F0134D" d="M39.888,412.166H32c-17.672,0-32-14.328-32-32v-288v-32c0-17.672,14.328-32,32-32h64  c17.672,0,32,14.328,32,32l0,0c0,17.672,14.328,32,32,32h192.832c17.216,0,31.168,13.952,31.168,31.168l0,0v256.832  c0,17.672-14.328,32-32,32H48H39.888z" data-original="#597BF9" class="" data-old_color="#597BF9"/><path style="fill:#BE0C3A" d="M89,124.166h320.152c19.936,0,34.752,18.464,30.424,37.928l-50.152,225.672  c-3.168,14.256-15.816,24.4-30.424,24.4H39.888c-20.472,0-35.68-18.96-31.24-38.944l49.92-224.656  C61.744,134.31,74.392,124.166,89,124.166z" data-original="#FFE67D" class="active-path" data-old_color="#FFE67D"/></g> </svg>
